<?xml version="1.0" encoding="utf-8"?>
<!-- Generator: Adobe Illustrator 25.1.0, SVG Export Plug-In . SVG Version: 6.00 Build 0)  -->
<svg version="1.1" id="Layer_1" xmlns="http://www.w3.org/2000/svg" xmlns:xlink="http://www.w3.org/1999/xlink" x="0px" y="0px"
	 viewBox="0 0 151.4 150" style="enable-background:new 0 0 151.4 150;" xml:space="preserve">
<style type="text/css">
	.st0{fill:#C3212B;}
	.st1{display:none;}
	.st2{display:inline;fill:#FFFFFF;}
	.st3{fill:#FFFFFF;}
</style>
<rect y="0" class="st0" width="151.4" height="150"/>
<g class="st1">
	<path class="st2" d="M11.9,47.1h2.6l3.1,5.6c0.2,0.4,0.5,0.9,0.6,1.3l0,0c0-0.4,0-0.8,0-1.3v-5.6h2.1v9.8h-2.5l-3.3-5.6
		c-0.3-0.5-0.4-0.8-0.6-1.2l0,0c0,0.4,0,0.8,0,1.3V57h-2.1L11.9,47.1L11.9,47.1z"/>
	<path class="st2" d="M21.7,55c0-0.6,0.2-1.2,0.7-1.5s1.1-0.5,2.2-0.7l1.7-0.2v-0.2c0-0.8-0.3-1.1-1-1.1s-1.1,0.4-1.1,1H22
		c0.1-1.5,1.4-2.4,3.3-2.4c2.2,0,3.2,0.9,3.2,2.9V55c0,0.8,0.1,1.5,0.2,1.9h-2.2c-0.1-0.3-0.1-0.7-0.1-1.1c-0.3,0.8-1.2,1.3-2.3,1.3
		C22.7,57.1,21.7,56.2,21.7,55z M26.3,54.3v-0.6l-1.2,0.2c-0.8,0.2-1.2,0.4-1.2,1c0,0.5,0.4,0.8,1,0.8
		C25.8,55.6,26.3,55.1,26.3,54.3z"/>
	<path class="st2" d="M29.5,55.5l1.3-0.9c0.5,0.7,1.2,1,2.2,1c0.8,0,1.1-0.2,1.1-0.6s-0.2-0.5-1-0.6L32,54.1
		c-1.4-0.2-2.1-0.9-2.1-2.1c0-1.3,1.1-2.2,3-2.2c1.4,0,2.6,0.5,3.1,1.3l-1.1,1c-0.5-0.5-1.2-0.8-2.1-0.8c-0.6,0-1,0.2-1,0.6
		c0,0.3,0.2,0.5,0.8,0.6l1.4,0.2c1.4,0.2,2,0.9,2,2.1c0,1.4-1.1,2.3-3.1,2.3C31.4,57.1,30.2,56.5,29.5,55.5z"/>
	<path class="st2" d="M35.9,59.6V58c0.2,0,0.5,0,0.6,0c0.6,0,0.9-0.2,0.9-1.2V50h2.2v7c0,1.7-0.6,2.7-2.7,2.7
		C36.6,59.7,36.1,59.6,35.9,59.6z M37.3,47h2.3v2h-2.3V47z"/>
	<path class="st2" d="M40.9,53.4c0-2.4,1.5-3.6,3.6-3.6c2,0,3.6,1.2,3.6,3.6c0,2.4-1.5,3.6-3.6,3.6C42.4,57.1,40.9,55.8,40.9,53.4z
		 M45.8,53.4c0-1.4-0.5-2.1-1.4-2.1S43,51.9,43,53.4c0,1.4,0.5,2.1,1.4,2.1S45.8,54.8,45.8,53.4z"/>
	<path class="st2" d="M49.4,50h2.1v1.3c0.5-1,1.2-1.5,2.3-1.5c1.5,0,2.3,1,2.3,2.8v4.3h-2.2v-4c0-1-0.3-1.4-1-1.4
		c-0.8,0-1.2,0.6-1.2,1.7v3.7h-2.2L49.4,50L49.4,50z"/>
	<path class="st2" d="M57.2,55c0-0.6,0.2-1.2,0.7-1.5s1.1-0.5,2.2-0.7l1.7-0.2v-0.2c0-0.8-0.3-1.1-1-1.1s-1.1,0.4-1.1,1h-2.2
		c0.1-1.5,1.4-2.4,3.3-2.4c2.2,0,3.2,0.9,3.2,2.9V55c0,0.8,0.1,1.5,0.2,1.9H62c-0.1-0.3-0.1-0.7-0.1-1.1c-0.3,0.8-1.2,1.3-2.3,1.3
		C58.2,57.1,57.2,56.2,57.2,55z M61.8,54.3v-0.6l-1.2,0.2c-0.8,0.2-1.2,0.4-1.2,1c0,0.5,0.4,0.8,1,0.8
		C61.3,55.6,61.8,55.1,61.8,54.3z"/>
	<path class="st2" d="M68,56.9h-2.2v-10H68V56.9z"/>
	<path class="st2" d="M74.1,51.5h-1.6v5.4h-2.2v-5.4h-1.1V50h1.1v-0.6c0-1.6,1-2.5,2.7-2.5c0.4,0,0.8,0,1.1,0.1v1.6
		c-0.2,0-0.5-0.1-0.7-0.1c-0.6,0-0.9,0.3-0.9,1V50h1.6V51.5z"/>
	<path class="st2" d="M74.6,53.4c0-2.4,1.5-3.6,3.6-3.6c2,0,3.6,1.2,3.6,3.6c0,2.4-1.5,3.6-3.6,3.6C76.2,57.1,74.6,55.8,74.6,53.4z
		 M79.6,53.4c0-1.4-0.5-2.1-1.4-2.1s-1.4,0.6-1.4,2.1c0,1.4,0.5,2.1,1.4,2.1S79.6,54.8,79.6,53.4z"/>
	<path class="st2" d="M87.5,49.8L87.5,49.8l0.1,2.1c-0.1,0-0.2,0-0.4,0c-0.6,0-1,0.2-1.3,0.4c-0.4,0.4-0.6,1-0.6,1.7v2.8h-2.2V50
		h2.1v1.8C85.5,50.5,86.3,49.8,87.5,49.8z"/>
	<path class="st2" d="M95.1,53.9h-4.8c0,0.9,0.7,1.5,1.6,1.5c0.7,0,1.2-0.3,1.5-1l1.6,0.7c-0.6,1.1-1.7,1.8-3.2,1.8
		c-2.3,0-3.7-1.3-3.7-3.5c0-2.3,1.4-3.7,3.5-3.7c2.2,0,3.4,1.3,3.4,3.5L95.1,53.9L95.1,53.9z M92.9,52.6c0-1-0.5-1.5-1.3-1.5
		c-0.9,0-1.3,0.6-1.4,1.6L92.9,52.6L92.9,52.6z"/>
	<path class="st2" d="M96.5,50h2.1v1.3c0.5-1,1.2-1.5,2.3-1.5c1.5,0,2.3,1,2.3,2.8v4.3H101v-4c0-1-0.3-1.4-1-1.4
		c-0.8,0-1.2,0.6-1.2,1.7v3.7h-2.2V50H96.5z"/>
	<path class="st2" d="M104.9,47h2.3v2h-2.3V47z M104.9,50h2.2v6.9h-2.2V50z"/>
	<path class="st2" d="M109,50h2.1v1.3c0.5-1,1.2-1.5,2.3-1.5c1.5,0,2.3,1,2.3,2.8v4.3h-2.2v-4c0-1-0.3-1.4-1-1.4
		c-0.8,0-1.2,0.6-1.2,1.7v3.7H109V50z"/>
	<path class="st2" d="M123.6,50.2c-0.4,0-0.7,0.1-0.9,0.2c0.5,0.4,0.8,1,0.8,1.6c0,1.4-1.2,2.3-3.2,2.3c-0.5,0-1-0.1-1.4-0.2
		c-0.1,0.1-0.2,0.2-0.2,0.4c0,0.3,0.3,0.6,0.9,0.6h1.9c1.7,0,2.6,0.7,2.6,2c0,1.6-1.4,2.5-4,2.5c-2.3,0-3.4-0.7-3.4-1.7
		c0-0.6,0.4-1,1.2-1.2c-0.6-0.2-1-0.7-1-1.3c0-0.7,0.5-1.3,1.2-1.6c-0.7-0.4-1.1-1-1.1-1.9c0-1.4,1.2-2.3,3.2-2.3
		c0.6,0,1.1,0.1,1.6,0.2c0.2-0.8,0.9-1.3,2-1.3c0.1,0,0.2,0,0.3,0V50C124,50.3,123.8,50.2,123.6,50.2z M119.2,57c-0.2,0-0.3,0-0.5,0
		c-0.2,0.2-0.3,0.4-0.3,0.6c0,0.6,0.7,0.9,1.9,0.9c1.4,0,2-0.3,2-0.8c0-0.4-0.3-0.7-0.9-0.7H119.2z M121.4,52.1
		c0-0.7-0.4-1.2-1.1-1.2c-0.6,0-1.1,0.5-1.1,1.2s0.4,1.2,1.1,1.2C122.3,53.3,122.7,52.8,122.7,52.1z"/>
	<path class="st2" d="M133,53.9h-4.8c0,0.9,0.7,1.5,1.6,1.5c0.7,0,1.2-0.3,1.5-1l1.6,0.7c-0.6,1.1-1.7,1.8-3.2,1.8
		c-2.3,0-3.7-1.3-3.7-3.5c0-2.3,1.4-3.7,3.5-3.7c2.2,0,3.4,1.3,3.4,3.5L133,53.9L133,53.9z M130.8,52.6c0-1-0.5-1.5-1.3-1.5
		c-0.9,0-1.3,0.6-1.4,1.6L130.8,52.6L130.8,52.6z"/>
	<path class="st2" d="M134.5,50h2.1v1.3c0.5-1,1.2-1.5,2.3-1.5c1.5,0,2.3,1,2.3,2.8v4.3H139v-4c0-1-0.3-1.4-1-1.4
		c-0.8,0-1.2,0.6-1.2,1.7v3.7h-2.2V50H134.5z"/>
	<path class="st2" d="M29.8,68h-1.6v5.4H26V68h-1.1v-1.5H26v-0.6c0-1.6,1-2.5,2.7-2.5c0.4,0,0.8,0,1.1,0.1v1.6
		C29.8,66.6,29.8,68,29.8,68z"/>
	<path class="st2" d="M30.5,70c0-2.4,1.5-3.6,3.6-3.6c2,0,3.6,1.2,3.6,3.6s-1.5,3.6-3.6,3.6C32.1,73.6,30.5,72.4,30.5,70z M35.5,70
		c0-1.4-0.5-2.1-1.4-2.1s-1.4,0.6-1.4,2.1c0,1.4,0.5,2.1,1.4,2.1C36.1,72.1,36.7,71.4,36.7,70z"/>
	<path class="st2" d="M43.6,66.4L43.6,66.4l0.1,2.1c-0.1,0-0.2,0-0.4,0c-0.6,0-1,0.2-1.3,0.4c-0.4,0.4-0.6,1-0.6,1.7v2.8h-2.2v-6.9
		h2.1v1.8C41.7,67.1,42.4,66.4,43.6,66.4z"/>
	<path class="st2" d="M52.9,68h-1.6v5.4h-2.2V68H48v-1.5h1.1v-0.6c0-1.6,1-2.5,2.7-2.5c0.4,0,0.8,0,1.1,0.1v1.6
		c-0.2,0-0.5-0.1-0.7-0.1c-0.6,0-0.9,0.3-0.9,1v0.6h1.6C52.9,66.6,52.9,68,52.9,68z"/>
	<path class="st2" d="M53.6,70c0-2.4,1.5-3.6,3.6-3.6c2,0,3.6,1.2,3.6,3.6s-1.5,3.6-3.6,3.6C55.2,73.6,53.6,72.4,53.6,70z M58.6,70
		c0-1.4-0.5-2.1-1.4-2.1s-1.4,0.6-1.4,2.1c0,1.4,0.5,2.1,1.4,2.1S58.6,71.4,58.6,70z"/>
	<path class="st2" d="M64.6,73.5h-2.2v-10h2.2V73.5z"/>
	<path class="st2" d="M69.8,70.7L69,71.5v2h-2.2v-10H69v5.8l2.2-2.7h2.6l-2.5,2.7l2.6,4.2h-2.5L69.8,70.7z"/>
	<path class="st2" d="M81.1,70.5h-4.8c0,0.9,0.7,1.5,1.6,1.5c0.7,0,1.2-0.3,1.5-1l1.6,0.7c-0.6,1.1-1.7,1.8-3.2,1.8
		c-2.3,0-3.7-1.3-3.7-3.6c0-2.3,1.4-3.7,3.5-3.7c2.2,0,3.4,1.3,3.4,3.5L81.1,70.5L81.1,70.5z M79,69.2c0-1-0.5-1.5-1.3-1.5
		c-0.9,0-1.3,0.6-1.4,1.6L79,69.2L79,69.2z"/>
	<path class="st2" d="M82.8,63.5H85v4.3c0.4-0.9,1.2-1.4,2.2-1.4c1.5,0,2.3,0.9,2.3,2.8v4.3h-2.2v-4.1c0-0.9-0.3-1.3-1-1.3
		c-0.8,0-1.2,0.6-1.2,1.7v3.7h-2.2v-10H82.8z"/>
	<path class="st2" d="M97.7,70.5h-4.8c0,0.9,0.7,1.5,1.6,1.5c0.7,0,1.2-0.3,1.5-1l1.6,0.7c-0.6,1.1-1.7,1.8-3.2,1.8
		c-2.3,0-3.7-1.3-3.7-3.6c0-2.3,1.4-3.7,3.5-3.7c2.2,0,3.4,1.3,3.4,3.5L97.7,70.5L97.7,70.5z M95.6,69.2c0-1-0.5-1.5-1.3-1.5
		c-0.9,0-1.3,0.6-1.4,1.6L95.6,69.2L95.6,69.2z"/>
	<path class="st2" d="M101.6,73.5h-2.2v-10h2.2V73.5z"/>
	<path class="st2" d="M103,72l1.3-0.9c0.5,0.7,1.2,1,2.2,1c0.8,0,1.1-0.2,1.1-0.6s-0.2-0.5-1-0.6l-1.1-0.2c-1.4-0.2-2.1-0.9-2.1-2.1
		c0-1.3,1.1-2.2,3-2.2c1.4,0,2.6,0.5,3.1,1.3l-1.1,1c-0.5-0.5-1.2-0.8-2.1-0.8c-0.6,0-1,0.2-1,0.6c0,0.3,0.2,0.5,0.8,0.6l1.4,0.2
		c1.4,0.2,2,0.9,2,2.1c0,1.4-1.1,2.3-3.1,2.3C104.9,73.6,103.7,73.1,103,72z"/>
	<path class="st2" d="M117.4,70.5h-4.8c0,0.9,0.7,1.5,1.6,1.5c0.7,0,1.2-0.3,1.5-1l1.6,0.7c-0.6,1.1-1.7,1.8-3.2,1.8
		c-2.3,0-3.7-1.3-3.7-3.6c0-2.3,1.4-3.7,3.5-3.7c2.2,0,3.4,1.3,3.4,3.5L117.4,70.5L117.4,70.5z M115.3,69.2c0-1-0.5-1.5-1.3-1.5
		c-0.9,0-1.3,0.6-1.4,1.6L115.3,69.2L115.3,69.2z"/>
	<path class="st2" d="M119,66.6h2.1v1.3c0.5-1,1.2-1.5,2.3-1.5c1.5,0,2.3,1,2.3,2.8v4.3h-2.2v-4c0-1-0.3-1.4-1-1.4
		c-0.8,0-1.2,0.6-1.2,1.7v3.7H119V66.6z"/>
</g>
<g transform="translate(0, 6)">
	<path class="st3" d="M99.1,94.2c0,12.8-19.8,30-23.3,30.9h-0.2c-3.5-0.8-23.3-18.1-23.3-30.9c0-5.7,2.9-10.1,7.9-12.1
		c4.9-2,12.5-1.2,15.5,4c3-5.3,10.6-6,15.5-4C96.2,84,99.1,88.5,99.1,94.2 M84.9,100.8l-0.8-1.5h-6.9V96h4.3l0.8-1.5L81.5,93h-4.3
		v-4.4l-1.5-0.7l-1.5,0.7V93h-4.3l-0.8,1.5l0.8,1.5h4.3v3.3h-6.9l-0.8,1.5l0.8,1.5h6.9v16.3l1.5,0.8l1.5-0.8v-16.3h6.9L84.9,100.8"/>
	<g>
		<path class="st3" d="M10.2,47.1h2.6l3.2,5.6c0.2,0.4,0.5,0.9,0.6,1.3l0,0c0-0.4,0-0.8,0-1.3v-5.6h2.1v9.8h-2.5l-3.3-5.7
			c-0.3-0.5-0.4-0.8-0.6-1.2l0,0c0,0.4,0,0.8,0,1.3v5.6h-2.1C10.2,56.9,10.2,47.1,10.2,47.1z"/>
		<path class="st3" d="M20.3,55c0-0.6,0.2-1.2,0.7-1.5s1.1-0.5,2.2-0.7l1.7-0.2v-0.2c0-0.8-0.3-1.1-1-1.1s-1.1,0.4-1.1,1h-2.2
			c0.1-1.5,1.4-2.4,3.3-2.4c2.2,0,3.2,0.9,3.2,2.9V55c0,0.8,0.1,1.5,0.2,1.9H25c-0.1-0.3-0.1-0.7-0.1-1.1c-0.3,0.8-1.2,1.3-2.3,1.3
			C21.2,57.1,20.3,56.2,20.3,55z M24.9,54.2v-0.6l-1.2,0.2c-0.8,0.2-1.2,0.4-1.2,1c0,0.5,0.4,0.8,1,0.8
			C24.3,55.6,24.9,55.1,24.9,54.2z"/>
		<path class="st3" d="M28.2,55.5l1.3-0.9c0.5,0.7,1.2,1,2.2,1c0.8,0,1.1-0.2,1.1-0.6c0-0.4-0.2-0.5-1-0.6l-1.1-0.2
			c-1.4-0.2-2.1-0.9-2.1-2.1c0-1.3,1.1-2.2,3-2.2c1.4,0,2.6,0.5,3.1,1.3l-1.1,1c-0.5-0.5-1.2-0.8-2.1-0.8c-0.6,0-1,0.2-1,0.6
			c0,0.3,0.2,0.5,0.8,0.6l1.4,0.2c1.4,0.2,2,0.9,2,2.1c0,1.4-1.1,2.3-3.1,2.3C30.1,57.1,28.9,56.5,28.2,55.5z"/>
		<path class="st3" d="M34.8,59.6V58c0.2,0,0.5,0,0.6,0c0.6,0,0.9-0.2,0.9-1.2V50h2.2v7c0,1.7-0.6,2.7-2.7,2.7
			C35.5,59.7,35,59.6,34.8,59.6z M36.2,47h2.3v2h-2.3V47z"/>
		<path class="st3" d="M40,53.4c0-2.4,1.5-3.6,3.6-3.6c2,0,3.6,1.2,3.6,3.6c0,2.4-1.5,3.6-3.6,3.6C41.5,57.1,40,55.8,40,53.4z
			 M45,53.4c0-1.4-0.5-2.1-1.4-2.1s-1.4,0.6-1.4,2.1c0,1.4,0.5,2.1,1.4,2.1C44.4,55.5,45,54.8,45,53.4z"/>
		<path class="st3" d="M48.7,50h2.1v1.3c0.5-1,1.2-1.5,2.3-1.5c1.5,0,2.3,1,2.3,2.8v4.3h-2.2v-4c0-1-0.3-1.4-1-1.4
			c-0.8,0-1.2,0.6-1.2,1.7v3.7h-2.2L48.7,50L48.7,50z"/>
		<path class="st3" d="M56.7,55c0-0.6,0.2-1.2,0.7-1.5s1.1-0.5,2.2-0.7l1.7-0.2v-0.2c0-0.8-0.3-1.1-1-1.1s-1.1,0.4-1.1,1H57
			c0.1-1.5,1.4-2.4,3.3-2.4c2.2,0,3.2,0.9,3.2,2.9V55c0,0.8,0.1,1.5,0.2,1.9h-2.2c-0.1-0.3-0.1-0.7-0.1-1.1c-0.3,0.8-1.2,1.3-2.3,1.3
			C57.7,57.1,56.7,56.2,56.7,55z M61.3,54.2v-0.6l-1.2,0.2c-0.8,0.2-1.2,0.4-1.2,1c0,0.5,0.4,0.8,1,0.8
			C60.8,55.6,61.3,55.1,61.3,54.2z"/>
		<path class="st3" d="M67.7,56.9h-2.2v-10h2.2V56.9z"/>
		<path class="st3" d="M74,51.5h-1.6v5.4h-2.2v-5.4h-1.1V50h1.1v-0.6c0-1.6,1-2.5,2.7-2.5c0.4,0,0.8,0,1.1,0.1v1.6
			c-0.2,0-0.5-0.1-0.7-0.1c-0.6,0-0.9,0.3-0.9,1V50H74V51.5z"/>
		<path class="st3" d="M74.7,53.4c0-2.4,1.5-3.6,3.6-3.6c2,0,3.6,1.2,3.6,3.6c0,2.4-1.5,3.6-3.6,3.6C76.3,57.1,74.7,55.8,74.7,53.4z
			 M79.7,53.4c0-1.4-0.5-2.1-1.4-2.1s-1.4,0.6-1.4,2.1c0,1.4,0.5,2.1,1.4,2.1S79.7,54.8,79.7,53.4z"/>
		<path class="st3" d="M87.8,49.8H88v2.1c-0.1,0-0.2,0-0.4,0c-0.6,0-1,0.2-1.3,0.4c-0.4,0.4-0.6,1-0.6,1.7v2.8h-2.2V50h2.1v1.8
			C85.9,50.5,86.6,49.8,87.8,49.8z"/>
		<path class="st3" d="M95.6,53.9h-4.8c0,0.9,0.7,1.5,1.6,1.5c0.7,0,1.2-0.3,1.5-1l1.6,0.7c-0.6,1.1-1.7,1.8-3.2,1.8
			c-2.3,0-3.7-1.3-3.7-3.6s1.4-3.7,3.5-3.7c2.2,0,3.4,1.3,3.4,3.5L95.6,53.9L95.6,53.9z M93.5,52.6c0-1-0.5-1.5-1.3-1.5
			c-0.9,0-1.3,0.6-1.4,1.6L93.5,52.6L93.5,52.6z"/>
		<path class="st3" d="M97.2,50h2.1v1.3c0.5-1,1.2-1.5,2.3-1.5c1.5,0,2.3,1,2.3,2.8v4.3h-2.2v-4c0-1-0.3-1.4-1-1.4
			c-0.8,0-1.2,0.6-1.2,1.7v3.7h-2.2V50H97.2z"/>
		<path class="st3" d="M105.8,47h2.3v2h-2.3V47z M105.8,50h2.2v6.9h-2.2V50z"/>
		<path class="st3" d="M110.1,50h2.1v1.3c0.5-1,1.2-1.5,2.3-1.5c1.5,0,2.3,1,2.3,2.8v4.3h-2.2v-4c0-1-0.3-1.4-1-1.4
			c-0.8,0-1.2,0.6-1.2,1.7v3.7h-2.2V50H110.1z"/>
		<path class="st3" d="M124.9,50.2c-0.4,0-0.7,0.1-0.9,0.2c0.5,0.4,0.8,1,0.8,1.6c0,1.4-1.2,2.3-3.2,2.3c-0.5,0-1-0.1-1.4-0.2
			c-0.1,0.1-0.2,0.2-0.2,0.4c0,0.3,0.3,0.6,0.9,0.6h1.9c1.7,0,2.6,0.7,2.6,2c0,1.6-1.4,2.5-4,2.5c-2.3,0-3.4-0.7-3.4-1.7
			c0-0.6,0.4-1,1.2-1.2c-0.6-0.2-1-0.7-1-1.3c0-0.7,0.5-1.3,1.2-1.6c-0.7-0.4-1.1-1.1-1.1-1.9c0-1.4,1.2-2.3,3.2-2.3
			c0.6,0,1.1,0.1,1.6,0.2c0.2-0.8,0.9-1.3,2-1.3c0.1,0,0.2,0,0.3,0V50C125.3,50.3,125.1,50.2,124.9,50.2z M120.5,57
			c-0.2,0-0.3,0-0.5,0c-0.2,0.2-0.3,0.4-0.3,0.6c0,0.6,0.7,0.9,1.9,0.9c1.4,0,2-0.3,2-0.8c0-0.4-0.3-0.7-0.9-0.7H120.5z M122.7,52.1
			c0-0.7-0.4-1.2-1.1-1.2c-0.6,0-1.1,0.5-1.1,1.2s0.4,1.2,1.1,1.2C122.3,53.3,122.7,52.8,122.7,52.1z"/>
		<path class="st3" d="M133,53.9h-4.8c0,0.9,0.7,1.5,1.6,1.5c0.7,0,1.2-0.3,1.5-1l1.6,0.7c-0.6,1.1-1.7,1.8-3.2,1.8
			c-2.3,0-3.7-1.3-3.7-3.5c0-2.3,1.4-3.7,3.5-3.7c2.2,0,3.4,1.3,3.4,3.5L133,53.9L133,53.9z M130.8,52.6c0-1-0.5-1.5-1.3-1.5
			c-0.9,0-1.3,0.6-1.4,1.6L130.8,52.6L130.8,52.6z"/>
		<path class="st3" d="M134.5,50h2.1v1.3c0.5-1,1.2-1.5,2.3-1.5c1.5,0,2.3,1,2.3,2.8v4.3H139v-4c0-1-0.3-1.4-1-1.4
			c-0.8,0-1.2,0.6-1.2,1.7v3.7h-2.2V50H134.5z"/>
		<path class="st3" d="M29.8,68h-1.6v5.4H26V68h-1.1v-1.5H26v-0.6c0-1.6,1-2.5,2.7-2.5c0.4,0,0.8,0,1.1,0.1v1.6
			c-0.2,0-0.5-0.1-0.7-0.1c-0.6,0-0.9,0.3-0.9,1v0.6h1.6C29.8,66.6,29.8,68,29.8,68z"/>
		<path class="st3" d="M30.5,70c0-2.4,1.5-3.6,3.6-3.6c2,0,3.6,1.2,3.6,3.6s-1.5,3.6-3.6,3.6C32.1,73.6,30.5,72.4,30.5,70z M35.5,70
			c0-1.4-0.5-2.1-1.4-2.1s-1.4,0.6-1.4,2.1c0,1.4,0.5,2.1,1.4,2.1S35.5,71.4,35.5,70z"/>
		<path class="st3" d="M43.6,66.4L43.6,66.4l0.1,2.1c-0.1,0-0.2,0-0.4,0c-0.6,0-1,0.2-1.3,0.4c-0.4,0.4-0.6,1-0.6,1.7v2.8h-2.2v-6.9
			h2.1v1.8C41.7,67.1,42.4,66.4,43.6,66.4z"/>
		<path class="st3" d="M52.9,68h-1.6v5.4h-2.2V68H48v-1.5h1.1v-0.6c0-1.6,1-2.5,2.7-2.5c0.4,0,0.8,0,1.1,0.1v1.6
			c-0.2,0-0.5-0.1-0.7-0.1c-0.6,0-0.9,0.3-0.9,1v0.6h1.6C52.9,66.6,52.9,68,52.9,68z"/>
		<path class="st3" d="M53.6,70c0-2.4,1.5-3.6,3.6-3.6c2,0,3.6,1.2,3.6,3.6s-1.5,3.6-3.6,3.6C55.2,73.6,53.6,72.4,53.6,70z M58.6,70
			c0-1.4-0.5-2.1-1.4-2.1s-1.4,0.6-1.4,2.1c0,1.4,0.5,2.1,1.4,2.1S58.6,71.4,58.6,70z"/>
		<path class="st3" d="M64.6,73.5h-2.2v-10h2.2V73.5z"/>
		<path class="st3" d="M69.8,70.7L69,71.5v2h-2.2v-10H69v5.8l2.2-2.7h2.6l-2.5,2.8l2.6,4.2h-2.5L69.8,70.7z"/>
		<path class="st3" d="M81.1,70.5h-4.8c0,0.9,0.7,1.5,1.6,1.5c0.7,0,1.2-0.3,1.5-1l1.6,0.7c-0.6,1.1-1.7,1.8-3.2,1.8
			c-2.3,0-3.7-1.3-3.7-3.6c0-2.3,1.4-3.7,3.5-3.7c2.2,0,3.4,1.3,3.4,3.5L81.1,70.5L81.1,70.5z M79,69.2c0-1-0.5-1.5-1.3-1.5
			c-0.9,0-1.3,0.6-1.4,1.6L79,69.2L79,69.2z"/>
		<path class="st3" d="M82.8,63.5H85v4.3c0.4-0.9,1.2-1.4,2.2-1.4c1.5,0,2.3,0.9,2.3,2.8v4.3h-2.2v-4.1c0-0.9-0.3-1.3-1-1.3
			c-0.8,0-1.2,0.6-1.2,1.7v3.7h-2.2v-10H82.8z"/>
		<path class="st3" d="M97.7,70.5h-4.8c0,0.9,0.7,1.5,1.6,1.5c0.7,0,1.2-0.3,1.5-1l1.6,0.7c-0.6,1.1-1.7,1.8-3.2,1.8
			c-2.3,0-3.7-1.3-3.7-3.6c0-2.3,1.4-3.7,3.5-3.7c2.2,0,3.4,1.3,3.4,3.5L97.7,70.5L97.7,70.5z M95.6,69.2c0-1-0.5-1.5-1.3-1.5
			c-0.9,0-1.3,0.6-1.4,1.6L95.6,69.2L95.6,69.2z"/>
		<path class="st3" d="M101.6,73.5h-2.2v-10h2.2V73.5z"/>
		<path class="st3" d="M103,72l1.3-0.9c0.5,0.7,1.2,1,2.2,1c0.8,0,1.1-0.2,1.1-0.6s-0.2-0.5-1-0.6l-1.1-0.2c-1.4-0.2-2.1-0.9-2.1-2.1
			c0-1.3,1.1-2.2,3-2.2c1.4,0,2.6,0.5,3.1,1.3l-1.1,1c-0.5-0.5-1.2-0.8-2.1-0.8c-0.6,0-1,0.2-1,0.6c0,0.3,0.2,0.5,0.8,0.6l1.4,0.2
			c1.4,0.2,2,0.9,2,2.1c0,1.4-1.1,2.3-3.1,2.3C104.9,73.6,103.7,73.1,103,72z"/>
		<path class="st3" d="M117.4,70.5h-4.8c0,0.9,0.7,1.5,1.6,1.5c0.7,0,1.2-0.3,1.5-1l1.6,0.7c-0.6,1.1-1.7,1.8-3.2,1.8
			c-2.3,0-3.7-1.3-3.7-3.6c0-2.3,1.4-3.7,3.5-3.7c2.2,0,3.4,1.3,3.4,3.5L117.4,70.5L117.4,70.5z M115.3,69.2c0-1-0.5-1.5-1.3-1.5
			c-0.9,0-1.3,0.6-1.4,1.6L115.3,69.2L115.3,69.2z"/>
		<path class="st3" d="M119,66.6h2.1v1.3c0.5-1,1.2-1.5,2.3-1.5c1.5,0,2.3,1,2.3,2.8v4.3h-2.2v-4c0-1-0.3-1.4-1-1.4
			c-0.8,0-1.2,0.6-1.2,1.7v3.7H119V66.6z"/>
	</g>
</g>
</svg>
